<?xml version="1.0" encoding="utf-8"?>
<!-- Generator: Adobe Illustrator 24.0.2, SVG Export Plug-In . SVG Version: 6.00 Build 0)  -->
<svg version="1.1" id="exitfullscreen" xmlns="http://www.w3.org/2000/svg" xmlns:xlink="http://www.w3.org/1999/xlink" x="0px"
	 y="0px" viewBox="0 0 512 512" style="enable-background:new 0 0 512 512;" xml:space="preserve">
<style type="text/css">
	.st0{fill:#1D1D1B;}
</style>
<path id="BR" class="st0" d="M371.7,467.5c-13.8,0-25-11.2-25-25v-70c0-13.8,11.2-25,25-25h70c13.8,0,25,11.2,25,25s-11.2,25-25,25
	h-45v45C396.7,456.3,385.5,467.5,371.7,467.5z"/>
<path id="BL" class="st0" d="M140,467.5c-13.8,0-25-11.2-25-25v-45H70c-13.8,0-25-11.2-25-25s11.2-25,25-25h70c13.8,0,25,11.2,25,25
	v70C165,456.3,153.8,467.5,140,467.5z"/>
<path id="TR" class="st0" d="M441.7,164.7h-70c-13.8,0-25-11.2-25-25v-70c0-13.8,11.2-25,25-25s25,11.2,25,25v45h45
	c13.8,0,25,11.2,25,25S455.5,164.7,441.7,164.7z"/>
<path id="TL" class="st0" d="M140,164.7H70c-13.8,0-25-11.2-25-25s11.2-25,25-25h45v-45c0-13.8,11.2-25,25-25s25,11.2,25,25v70
	C165,153.5,153.8,164.7,140,164.7z"/>
</svg>
