<?xml version="1.0" encoding="utf-8"?>
<!-- Generator: Adobe Illustrator 24.0.2, SVG Export Plug-In . SVG Version: 6.00 Build 0)  -->
<svg version="1.1" id="fullscreen" xmlns="http://www.w3.org/2000/svg" xmlns:xlink="http://www.w3.org/1999/xlink" x="0px" y="0px"
	 viewBox="0 0 512 512" style="enable-background:new 0 0 512 512;" xml:space="preserve">
<style type="text/css">
	.st0{fill:#1D1D1B;}
</style>
<path id="BR" class="st0" d="M441.7,347.5c13.8,0,25,11.2,25,25v70c0,13.8-11.2,25-25,25h-70c-13.8,0-25-11.2-25-25s11.2-25,25-25
	h45v-45C416.7,358.7,427.9,347.5,441.7,347.5z"/>
<path id="BL" class="st0" d="M70,347.5c13.8,0,25,11.2,25,25v45h45c13.8,0,25,11.2,25,25s-11.2,25-25,25H70c-13.8,0-25-11.2-25-25
	v-70C45,358.7,56.2,347.5,70,347.5z"/>
<path id="TR" class="st0" d="M371.7,44.7h70c13.8,0,25,11.2,25,25v70c0,13.8-11.2,25-25,25s-25-11.2-25-25v-45h-45
	c-13.8,0-25-11.2-25-25S357.9,44.7,371.7,44.7z"/>
<path id="TL" class="st0" d="M70,44.7h70c13.8,0,25,11.2,25,25s-11.2,25-25,25H95v45c0,13.8-11.2,25-25,25s-25-11.2-25-25v-70
	C45,55.9,56.2,44.7,70,44.7z"/>
</svg>
