<?xml version="1.0" encoding="utf-8"?>
<!-- Generator: Adobe Illustrator 24.0.2, SVG Export Plug-In . SVG Version: 6.00 Build 0)  -->
<svg version="1.1" id="IDE" xmlns="http://www.w3.org/2000/svg" xmlns:xlink="http://www.w3.org/1999/xlink" x="0px" y="0px"
	 viewBox="0 0 512 512" style="enable-background:new 0 0 512 512;" xml:space="preserve">
<style type="text/css">
	.st0{fill:#1D1D1B;}
</style>
<path id="left" class="st0" d="M147.8,358.8c-6.4,0-12.8-2.4-17.7-7.3l-77.8-77.8c-9.8-9.8-9.8-25.6,0-35.4l77.8-77.8
	c9.8-9.8,25.6-9.8,35.4,0c9.8,9.8,9.8,25.6,0,35.4L105.4,256l60.1,60.1c9.8,9.8,9.8,25.6,0,35.4
	C160.6,356.3,154.2,358.8,147.8,358.8z"/>
<path id="right" class="st0" d="M363.9,153.2c6.4,0,12.8,2.4,17.7,7.3l77.8,77.8c9.8,9.8,9.8,25.6,0,35.4l-77.8,77.8
	c-9.8,9.8-25.6,9.8-35.4,0s-9.8-25.6,0-35.4l60.1-60.1l-60.1-60.1c-9.8-9.8-9.8-25.6,0-35.4C351.1,155.7,357.5,153.2,363.9,153.2z"
	/>
</svg>
