<?xml version="1.0" encoding="utf-8"?>
<!-- Generator: Adobe Illustrator 24.0.2, SVG Export Plug-In . SVG Version: 6.00 Build 0)  -->
<svg version="1.1" id="information" xmlns="http://www.w3.org/2000/svg" xmlns:xlink="http://www.w3.org/1999/xlink" x="0px"
	 y="0px" viewBox="0 0 512 512" style="enable-background:new 0 0 512 512;" xml:space="preserve">
<style type="text/css">
	.st0{fill:#FFFFFF;}
</style>
<path id="circle" class="st0" d="M256,456c-110.3,0-200-89.7-200-200S145.7,56,256,56s200,89.7,200,200S366.3,456,256,456z M256,106
	c-82.7,0-150,67.3-150,150s67.3,150,150,150s150-67.3,150-150S338.7,106,256,106z"/>
<path id="line" class="st0" d="M287.9,328.1h-4.5l-0.4-95.6c0-8.2-4.1-15.8-10.8-20.5c-6.7-4.6-15.3-5.7-23-2.9L220.1,220
	c-12.9,4.8-19.5,19.2-14.7,32.2c4.3,11.5,16.1,17.9,27.7,15.9l0.2,60H228c-13.8,0-25,11.2-25,25s11.2,25,25,25h30.4h0.1h29.3
	c13.8,0,25-11.2,25-25S301.7,328.1,287.9,328.1z"/>
<circle id="dot" class="st0" cx="256" cy="162.1" r="25"/>
</svg>
