<?xml version="1.0" encoding="utf-8"?>
<!-- Generator: Adobe Illustrator 24.0.2, SVG Export Plug-In . SVG Version: 6.00 Build 0)  -->
<svg version="1.1" id="webotsview" xmlns="http://www.w3.org/2000/svg" xmlns:xlink="http://www.w3.org/1999/xlink" x="0px" y="0px"
	 viewBox="0 0 512 512" style="enable-background:new 0 0 512 512;" xml:space="preserve">
<style type="text/css">
	.st0{fill:#1D1D1B;}
</style>
<path class="st0" d="M256,351c-52.4,0-95-42.6-95-95c0-52.4,42.6-95,95-95c52.4,0,95,42.6,95,95C351,308.4,308.4,351,256,351z
	 M256,201c-30.3,0-55,24.7-55,55s24.7,55,55,55s55-24.7,55-55S286.3,201,256,201z"/>
<path class="st0" d="M256,491c-13.1,0-26.3-1.1-39.1-3.2c-11-1.8-19.4-10.7-20.7-21.8l-3.6-30.8c-6.3-2.2-12.4-4.8-18.4-7.6
	l-24.3,19.3c-8.7,6.9-21,7.2-30,0.8c-10.6-7.6-20.7-16.1-30-25.4c-9.3-9.3-17.8-19.4-25.4-30c-6.5-9.1-6.1-21.3,0.8-30l19.3-24.3
	c-2.9-6-5.4-12.1-7.6-18.4L46,315.8c-11.1-1.3-19.9-9.7-21.8-20.7c-2.2-12.8-3.2-26-3.2-39.1s1.1-26.3,3.2-39.1
	c1.8-11,10.7-19.4,21.8-20.7l30.8-3.6c2.2-6.3,4.8-12.4,7.6-18.4l-19.3-24.3c-6.9-8.7-7.2-21-0.8-30c7.6-10.6,16.1-20.7,25.4-30
	c9.3-9.3,19.4-17.8,30-25.4c9.1-6.5,21.3-6.1,30,0.8l24.3,19.3c6-2.9,12.1-5.4,18.4-7.6l3.6-30.8c1.3-11.1,9.7-19.9,20.7-21.8
	c25.7-4.3,52.6-4.3,78.3,0c11,1.8,19.4,10.7,20.7,21.8l3.6,30.8c6.3,2.2,12.4,4.8,18.4,7.6l24.3-19.3c8.7-6.9,21-7.2,30-0.8
	c10.6,7.6,20.7,16.1,30,25.4c9.3,9.3,17.8,19.4,25.4,30c6.5,9.1,6.1,21.3-0.8,30l-19.3,24.3c2.9,6,5.4,12.1,7.6,18.4l30.8,3.6
	c11.1,1.3,19.9,9.7,21.8,20.7c2.2,12.8,3.2,26,3.2,39.1c0,13.1-1.1,26.3-3.2,39.1c-1.8,11-10.7,19.4-21.8,20.7l-30.8,3.6
	c-2.2,6.3-4.8,12.4-7.6,18.4l19.3,24.3c6.9,8.7,7.2,21,0.8,30c-7.6,10.6-16.1,20.7-25.4,30c-9.3,9.3-19.4,17.8-30,25.4
	c-9.1,6.5-21.3,6.2-30-0.8l-24.3-19.3c-6,2.9-12.1,5.4-18.4,7.6l-3.6,30.8c-1.3,11.1-9.7,19.9-20.7,21.8
	C282.3,489.9,269.1,491,256,491z M243.5,440.6c8.3,0.5,16.6,0.5,24.9,0l3.2-27.5c0.1-0.7,0.2-1.3,0.3-2c1.9-9.5,9.1-17,18.4-19.4
	c13.2-3.3,25.7-8.5,37.3-15.4c8.9-5.3,20.2-4.6,28.3,1.9l21.7,17.2c3.1-2.7,6.2-5.6,9.1-8.5c2.9-2.9,5.8-6,8.5-9.1L378.2,356
	c-0.5-0.6-1-1.3-1.4-2c-5.1-8-5.3-18.2-0.4-26.4c7-11.6,12.2-24.2,15.5-37.3c2.5-10.1,11-17.5,21.4-18.7l27.5-3.2
	c0.3-4.1,0.4-8.3,0.4-12.5c0-4.2-0.1-8.3-0.4-12.5l-27.5-3.2c-0.7-0.1-1.3-0.2-2-0.3c-9.5-1.9-17-9.1-19.4-18.4
	c-3.3-13.2-8.5-25.7-15.4-37.3c-5.3-8.9-4.6-20.2,1.9-28.3l17.2-21.7c-2.7-3.1-5.6-6.2-8.5-9.1c-2.9-2.9-6-5.8-9.1-8.5L356,133.8
	c-0.8,0.6-1.7,1.2-2.5,1.8c-7.9,4.8-17.9,4.9-25.8,0.1c-11.6-7-24.2-12.2-37.3-15.5c-10.1-2.5-17.5-11-18.7-21.4l-3.2-27.5
	c-8.3-0.6-16.6-0.6-24.9,0l-3.2,27.5c-0.1,0.6-0.2,1.1-0.3,1.7c-1.8,9.6-9,17.3-18.5,19.7c-13.2,3.3-25.7,8.5-37.3,15.4
	c-8.9,5.3-20.2,4.6-28.3-1.9l-21.7-17.2c-3.1,2.7-6.2,5.6-9.1,8.5c-2.9,2.9-5.8,6-8.5,9.1l17.2,21.7c0.5,0.6,0.9,1.2,1.3,1.8
	c5.2,8,5.5,18.3,0.5,26.5c-7,11.6-12.2,24.2-15.5,37.3c-2.5,10.1-11,17.5-21.4,18.7l-27.5,3.2c-0.3,4.1-0.4,8.3-0.4,12.5
	s0.1,8.3,0.4,12.5l27.5,3.2c0.6,0.1,1.1,0.2,1.7,0.3c9.6,1.8,17.3,9,19.7,18.5c3.3,13.2,8.5,25.7,15.4,37.3
	c5.3,8.9,4.6,20.2-1.9,28.3l-17.2,21.7c2.7,3.1,5.6,6.2,8.5,9.1c2.9,2.9,6,5.8,9.1,8.5l21.7-17.2c0.4-0.3,0.8-0.6,1.3-1l0,0
	c8.1-5.6,18.6-5.9,27.1-0.9c11.6,7,24.2,12.2,37.3,15.5c10.1,2.5,17.5,11,18.7,21.4L243.5,440.6z"/>
</svg>
