<?xml version="1.0" encoding="utf-8"?>
<!-- Generator: Adobe Illustrator 24.0.2, SVG Export Plug-In . SVG Version: 6.00 Build 0)  -->
<svg version="1.1" id="settings" xmlns="http://www.w3.org/2000/svg" xmlns:xlink="http://www.w3.org/1999/xlink" x="0px" y="0px"
	 viewBox="0 0 512 512" style="enable-background:new 0 0 512 512;" xml:space="preserve">
<style type="text/css">
	.st0{fill:none;stroke:#FFFFFF;stroke-width:40;stroke-miterlimit:10;}
	.st1{fill:none;stroke:#FFFFFF;stroke-width:50;stroke-linecap:round;stroke-linejoin:round;stroke-miterlimit:10;}
</style>
<circle id="center" class="st0" cx="256" cy="256" r="70.9"/>
<path id="cog" class="st1" d="M403.1,341.4c7.5-12.9,13.4-26.9,17.3-41.7l44.5-4.3c2.4-12.8,3.6-25.9,3.6-39.4s-1.3-26.6-3.6-39.4
	l-44.5-4.3l44.5,4.3c2.4,12.8,3.6,25.9,3.6,39.4s-1.3,26.6-3.6,39.4l-44.5,4.3C416.5,314.5,410.6,328.5,403.1,341.4L403.1,341.4
	l28.5,34.5c-7.3,10.7-15.8,20.9-25.3,30.4s-19.7,17.9-30.4,25.3l-34.5-28.5c-13.2,7.7-27.3,13.4-41.7,17.3l0,0l-4.3,44.5
	c-12.8,2.4-25.9,3.6-39.4,3.6s-26.6-1.3-39.4-3.6l-4.3-44.5c-14.8-3.9-28.8-9.8-41.7-17.3l0,0l-34.5,28.5
	c-10.7-7.3-20.9-15.8-30.4-25.3s-17.9-19.7-25.3-30.4l28.5-34.5c-7.7-13.2-13.4-27.3-17.3-41.7l0,0L47,295.4
	c-2.4-12.8-3.6-25.9-3.6-39.4s1.3-26.6,3.6-39.4l44.5-4.3c3.9-14.8,9.8-28.8,17.3-41.7l0,0l-28.5-34.5c7.3-10.7,15.8-20.9,25.3-30.4
	s19.7-17.9,30.4-25.3l34.5,28.5c13.2-7.7,27.3-13.4,41.7-17.3l0,0l4.3-44.5c12.8-2.4,25.9-3.6,39.4-3.6s26.6,1.3,39.4,3.6l4.3,44.5
	c14.8,3.9,28.8,9.8,41.7,17.3l0,0l34.5-28.5c10.7,7.3,20.9,15.8,30.4,25.3s17.9,19.7,25.3,30.4L403,170.6
	c7.7,13.2,13.4,27.3,17.3,41.7"/>
</svg>
