<?xml version="1.0" encoding="utf-8"?>
<!-- Generator: Adobe Illustrator 24.0.2, SVG Export Plug-In . SVG Version: 6.00 Build 0)  -->
<svg version="1.1" id="Layer_1" xmlns="http://www.w3.org/2000/svg" xmlns:xlink="http://www.w3.org/1999/xlink" x="0px" y="0px"
	 viewBox="0 0 96 96" style="enable-background:new 0 0 96 96;" xml:space="preserve">
<style type="text/css">
	.st0{fill:none;stroke:#FFFFFF;stroke-width:2.5;stroke-linecap:round;stroke-linejoin:round;stroke-miterlimit:10;}
	.st1{fill:#1D78BD;}
</style>
<image style="display:none;overflow:visible;" width="250" height="239" xlink:href="webots.png"  transform="matrix(0.4 0 0 0.4 3.0769 -4.7093)">
</image>
<g>
	<path class="st0" d="M67,71.1h9.9C85.8,71.1,93,63.9,93,55c0-6.3-3.7-11.9-9.2-14.6c-0.4-12.3-9.5-22.5-21.4-24.3 M67,71.1
		 M62.3,16.1c-1.3-0.2-2.6-0.3-3.9-0.3c-9.7,0-18.4,5.5-22.7,14.1c-0.9-0.1-1.8-0.2-2.7-0.2c-6.3,0-11.9,3.7-14.6,9.2
		C9.8,39.2,3,46.3,3,55c0,8.9,7.2,16.2,16.2,16.2h3.2"/>
	<g>
		<path class="st1" d="M31.3,71.9"/>
		<path class="st1" d="M42,77.9c-2.7,0-5.7-0.4-8.1-2.4c-0.5-0.4-0.6-1.1-0.2-1.6l5.5-7.8l-7.5,5.8c-0.5,0.4-1.2,0.3-1.6-0.2
			c-2.5-3-3.3-6.2-2.8-10.6c1-10,10.1-19,20.1-20c4.3-0.4,8.2,1,11.8,4.3c3.8,3.6,5.5,7.7,5,12.4c-1.1,10.3-10.3,19.4-20.1,20
			C43.3,77.9,42.7,77.9,42,77.9z M36.3,74.3c2.3,1.3,5.1,1.3,7.5,1.2c8.8-0.5,17-8.7,17.9-17.9c0.4-4-1-7.4-4.2-10.5
			c-3.1-2.9-6.3-4.1-9.9-3.7c-9,0.9-17,8.9-18,17.9c-0.4,3.4,0.1,5.7,1.6,8L44,59.4c0.5-0.4,1.1-0.3,1.5,0.1
			c0.4,0.4,0.5,1.1,0.1,1.5L36.3,74.3z"/>
		<path class="st1" d="M61.5,63.7c-0.1,0-0.2,0-0.3-0.1c-16-10-19.3-19.5-19.4-19.9c-0.1-0.3,0.1-0.6,0.4-0.7
			c0.3-0.1,0.6,0.1,0.7,0.4c0,0.1,3.4,9.6,18.9,19.3c0.3,0.2,0.4,0.5,0.2,0.8C61.9,63.6,61.7,63.7,61.5,63.7z"/>
		<path class="st1" d="M55.5,44.4c-0.2,0-0.4-0.1-0.6-0.2c-0.4-0.3-0.4-0.9-0.1-1.2c0.1-0.1,7.1-8.3,5.9-15.6
			c-0.1-0.5,0.2-0.9,0.7-1c0.5-0.1,0.9,0.2,1,0.7c1.3,8.1-6,16.6-6.3,17C56,44.3,55.8,44.4,55.5,44.4z"/>
		<path class="st1" d="M62.3,52.1c-0.3,0-0.6-0.1-0.7-0.4c-0.3-0.4-0.2-0.9,0.2-1.2c0.4-0.3,9.9-6.9,17.8-4.6
			c0.5,0.1,0.7,0.6,0.6,1.1c-0.1,0.5-0.6,0.7-1.1,0.6c-7.1-2-16.2,4.3-16.3,4.4C62.6,52,62.5,52.1,62.3,52.1z"/>
		<path class="st1" d="M62.3,62.7c-0.2,0-0.3,0-0.3,0c-0.5,0-0.9-0.4-0.8-0.9c0-0.5,0.4-0.9,0.9-0.8l0,0c0.1,0,6.2,0.2,11.7-3.7
			c0.4-0.3,0.9-0.2,1.2,0.2s0.2,0.9-0.2,1.2C69.4,62.5,63.7,62.7,62.3,62.7z"/>
		<path class="st1" d="M43.3,44c-0.4,0-0.8-0.3-0.9-0.7c0-0.2-1.1-5.2,4.9-13.2c0.3-0.4,0.8-0.5,1.2-0.2c0.4,0.3,0.5,0.8,0.2,1.2
			c-5.5,7.3-4.6,11.6-4.6,11.7c0.1,0.5-0.2,0.9-0.7,1.1C43.4,44,43.3,44,43.3,44z"/>
		<path class="st1" d="M39.4,45.8c-0.2,0-0.3-0.1-0.5-0.2c-0.1,0-5.5-3.8-8.1-4.5c-0.5-0.1-0.7-0.6-0.6-1.1c0.1-0.5,0.6-0.7,1.1-0.6
			c2.8,0.8,8.3,4.6,8.6,4.7c0.4,0.3,0.5,0.8,0.2,1.2C40,45.6,39.7,45.8,39.4,45.8z"/>
		<path class="st1" d="M57.2,79.3c0,0-0.1,0-0.1,0c-0.5-0.1-0.8-0.5-0.8-1c0.4-3.8-0.5-7.2-0.5-7.3c-0.1-0.5,0.1-1,0.6-1.1
			c0.5-0.1,1,0.1,1.1,0.6c0,0.2,1,3.8,0.6,7.9C58.1,79,57.7,79.3,57.2,79.3z"/>
		<path class="st1" d="M44.7,80.2c-0.2,0-0.5-0.1-0.6-0.3c-0.3-0.3-0.3-0.9,0-1.2c0.6-0.6,0.6-1.7,0.6-1.7c0-0.5,0.4-0.9,0.9-0.9
			c0.5,0,0.9,0.4,0.9,0.9c0,0.2,0,1.9-1.1,3C45.2,80.2,44.9,80.2,44.7,80.2z"/>
		<path class="st1" d="M25.7,63.9c-0.1,0-0.2,0-0.3,0c-0.5-0.1-0.7-0.6-0.6-1.1c0.8-2.6,3.4-4.5,3.5-4.6c0.4-0.3,0.9-0.2,1.2,0.2
			c0.3,0.4,0.2,0.9-0.2,1.2c0,0-2.2,1.6-2.9,3.7C26.4,63.6,26,63.9,25.7,63.9z"/>
		<path class="st1" d="M49,44.7c-1.8,0-3-0.9-3.1-0.9c-0.5-0.4-0.6-1.1-0.2-1.6c0.4-0.5,1.1-0.6,1.6-0.3c0.2,0.1,1.8,1.2,3.9-0.3
			c0.5-0.4,1.3-0.2,1.6,0.3c0.4,0.5,0.2,1.3-0.3,1.6C51.3,44.4,50.1,44.7,49,44.7z"/>
		<path class="st1" d="M62.3,59.5c-0.4,0-0.8-0.2-1-0.6c-1.8-3.1-0.5-5.3,0.4-6.1c0.5-0.4,1.2-0.3,1.7,0.2c0.4,0.5,0.3,1.2-0.2,1.6
			c-0.1,0.1-1,1,0.2,3.1c0.3,0.6,0.1,1.3-0.5,1.6C62.7,59.4,62.5,59.5,62.3,59.5z"/>
		<path class="st1" d="M33.5,63.3c-0.2,0-0.4-0.1-0.5-0.3l-1.6-2.9c-0.1-0.2-0.1-0.4,0-0.5l1.6-3.5c0.1-0.2,0.2-0.3,0.4-0.3l3-0.9
			c0.2-0.1,0.5,0,0.7,0.2l2.1,3c0.1,0.2,0.1,0.4,0.1,0.6l-1.6,4C37.4,62.9,37.2,63,37,63L33.5,63.3C33.5,63.3,33.5,63.3,33.5,63.3z
			 M32.6,59.8l1.2,2.3l2.7-0.2l1.4-3.3l-1.7-2.4l-2.3,0.7L32.6,59.8z"/>
		<path class="st1" d="M45.6,73.9c-0.1,0-0.2,0-0.2-0.1l-3.1-1.4c-0.2-0.1-0.4-0.4-0.3-0.6l0.6-3.3c0-0.2,0.2-0.4,0.4-0.4l4.1-1.7
			c0.2-0.1,0.4-0.1,0.5,0l2.8,1.7c0.2,0.1,0.3,0.4,0.3,0.7l-0.9,3c0,0.2-0.2,0.3-0.3,0.4l-3.5,1.7C45.8,73.9,45.7,73.9,45.6,73.9z
			 M43.2,71.5l2.4,1.1l3-1.4l0.7-2.3l-2.2-1.3L43.7,69L43.2,71.5z"/>
		<path class="st1" d="M46.5,59.5c-0.2,0-0.3-0.1-0.4-0.2c-0.1-0.1-0.2-0.3-0.2-0.5l0.2-2.7c0-0.3,0.2-0.5,0.5-0.5l2.8-0.5
			c0.2,0,0.4,0,0.5,0.2c0.1,0.1,0.2,0.3,0.2,0.5l-0.4,3.1c0,0.3-0.3,0.5-0.6,0.5L46.5,59.5C46.5,59.5,46.5,59.5,46.5,59.5z
			 M47.3,56.6l-0.1,1.6l1.5-0.1l0.2-1.8L47.3,56.6z"/>
		<path class="st1" d="M33.3,50.6c-0.3,0-0.5-0.2-0.6-0.5c-0.1-0.3,0.1-0.6,0.4-0.7l3.8-0.8l1.1-3.4c0.1-0.3,0.4-0.5,0.7-0.4
			c0.3,0.1,0.5,0.4,0.4,0.7L38,49.3c-0.1,0.2-0.2,0.4-0.4,0.4l-4.1,0.9C33.4,50.6,33.4,50.6,33.3,50.6z"/>
		<path class="st1" d="M55.3,72.3C55.3,72.3,55.3,72.3,55.3,72.3c-0.4-0.1-0.6-0.4-0.6-0.7l0.7-4.4c0-0.2,0.2-0.4,0.4-0.5l4-1.3
			c0.3-0.1,0.6,0.1,0.7,0.4c0.1,0.3-0.1,0.6-0.4,0.7l-3.7,1.2l-0.7,4C55.9,72.1,55.6,72.3,55.3,72.3z"/>
	</g>
</g>
</svg>
